<?xml version="1.0" encoding="UTF-8"?>
<!DOCTYPE svg PUBLIC "-//W3C//DTD SVG 1.1//EN" "http://www.w3.org/Graphics/SVG/1.1/DTD/svg11.dtd">
<!-- Creator: CorelDRAW 2021 (64-Bit) -->
<svg xmlns="http://www.w3.org/2000/svg" xml:space="preserve" width="22.6825mm" height="24.9757mm" version="1.1" style="shape-rendering:geometricPrecision; text-rendering:geometricPrecision; image-rendering:optimizeQuality; fill-rule:evenodd; clip-rule:evenodd"
viewBox="0 0 639.72 704.4"
 xmlns:xlink="http://www.w3.org/1999/xlink"
 xmlns:xodm="http://www.corel.com/coreldraw/odm/2003">
 <defs>
  <style type="text/css">
   <![CDATA[
    .fil6 {fill:#020202}
    .fil7 {fill:#1E1E1E}
    .fil1 {fill:#2925C8}
    .fil4 {fill:#3B3B3B}
    .fil8 {fill:#555555}
    .fil2 {fill:#717171}
    .fil3 {fill:#9D9D9D}
    .fil0 {fill:#C5C5C5}
    .fil9 {fill:#DDDDDD}
    .fil5 {fill:#F9F9F9}
   ]]>
  </style>
 </defs>
 <g id="Layer_x0020_1">
  <metadata id="CorelCorpID_0Corel-Layer"/>
  <g id="_1397829974928">
   <path class="fil0" d="M222.99 633.87l-218.36 -0.18c-1,1.36 1.56,1.11 -1.86,1.11l0 68.83 594.3 0c9.7,0 31.57,-1.38 39.08,0.76 -1.58,-4.17 1.23,-44.52 -0.76,-56.55 -0.69,-4.16 -2.1,-4.51 -6.02,-4.76l-89.37 -10.54 0 2.27 -312.7 0.05c-0.48,0 -2.01,-0.01 -2.42,-0.1 -0.19,-0.04 -0.35,-0.09 -0.53,-0.14l-0.93 -0.46c-0.1,-0.05 -0.3,-0.16 -0.43,-0.29z"/>
   <path class="fil1" d="M109.58 136.43c-0.09,3.24 -0.87,3.53 -0.91,7.49l-1.9 24.1c-1.27,10.2 -1.87,20.96 -2.54,31.89l-2.82 31.64c-1.79,14.44 -1.98,34.27 -4.07,47.22l-4.73 55.74c-0.11,12.89 -5.29,51.4 -3.78,55.99l-0.2 3.78 0.07 1.83c12.8,-14.46 37.03,-27.33 68.07,-27.55 29.14,-0.2 56.32,13.16 68.12,26.81l-0.05 -5.63c1.68,-5.94 -0.89,-17.73 -1.24,-23.44 -1.02,-16.76 -4.32,-42.33 -4.43,-55.99l-2.78 -32.43c-0.52,-4.58 -0.98,-11.58 -1.57,-16.06l-1.02 -15.77c-0.14,-3.77 -0.8,-3.83 -0.92,-7.54l-7.1 -89.27c-0.18,-4.82 -1.67,-11.47 -1.78,-16.12l-1.46 -11.98c-3.47,2.94 -13.87,7.25 -19.45,8.91 -8.45,2.53 -16.19,3.59 -26.32,3.56 -9.61,-0.03 -18.32,-1.27 -26.06,-3.75 -13.7,-4.39 -9.55,-3.87 -18.99,-8.13l-2.16 14.71z"/>
   <path class="fil2" d="M88.64 394.29c-0.49,0.58 -1.64,3.77 -2.54,5.05 -2.93,4.16 -7.14,7.9 -10.34,14.65 -2.82,5.92 -6.64,17.28 -7.1,23.15 -0.88,11.19 0.44,17.58 3.37,27.13 1.7,5.54 8.18,17.67 12.04,20.48 -0.9,2.16 -0.64,0.76 -1.81,2.11 -1.22,1.4 -2.56,-2.36 2.27,6.75 2.75,5.2 18.89,15.8 22.98,17.28 8.51,3.08 1.95,3.06 9.96,4.46l17.57 4.81c16.99,4.59 25.47,2.37 41.63,0.65 9.42,-1 2.65,-0.36 11.53,-3.04 2.28,-0.69 3.27,-1.11 5.69,-1.92 19.03,-6.38 11.39,-5.77 21.52,-11.33 6.08,-3.34 0.07,0.81 6.61,-4.93 5.29,-4.65 4.74,-2.42 9.22,-8.05 0.6,-0.75 1.71,-1.81 1.82,-1.97 2.39,-3.72 -0.89,3.49 0.22,-1.23 0.21,-0.91 -3.97,1.33 1.15,-1.76l-2.1 -1.34c2.24,-0.29 2.53,0.47 4.97,-3.68l3.18 -5.62c0.95,-1.62 2.11,-3.97 2.96,-5.8 3.5,-7.57 3.88,-10.44 5.28,-19.72 2.62,-17.4 -4.55,-36.13 -15.48,-50.68 -4.65,-6.19 -4.48,-4.09 -6.37,-6.66 -1.6,-2.17 -0.14,-1.75 -2.03,-3.31l0.05 5.63c-11.8,-13.65 -38.99,-27.01 -68.12,-26.81 -31.04,0.22 -55.27,13.09 -68.07,27.55l-0.07 -1.83z"/>
   <path class="fil2" d="M109.58 136.43l2.16 -14.71c9.44,4.26 5.29,3.75 18.99,8.13 7.75,2.48 16.45,3.72 26.06,3.75 10.12,0.03 17.86,-1.03 26.32,-3.56 5.57,-1.66 15.97,-5.97 19.45,-8.91 6.2,-2.22 8.18,-1.53 12.61,-4.81 8.13,-6.02 17.78,-20.3 20.03,-30.57 2.29,-10.45 3.05,-18.15 1.22,-29.5 -0.42,-2.61 -2.57,-10.6 -3.74,-12.94l-6.45 -10.56c-5.03,-3.9 -3.09,-6.07 -21.54,-20.24 -6.88,-5.29 -25.49,-7.2 -35.41,-9.27 -22.04,-4.58 -19.01,-3.93 -37.93,-0.42 -7.36,1.37 -11.5,4.72 -15.79,6.26 -3.22,1.15 -0.65,-0.43 -3.55,1.52 -2.25,1.51 -1.14,1.51 -6.62,4.96l-15.7 14.66c-10.02,12.78 -13.97,27.64 -13.09,43.38l5.78 19.29c3.36,8.1 16.18,24.74 24.52,28.27 3.97,1.68 -0.52,-0.61 3.56,0.83 0,5.13 -0.89,8.49 -0.89,14.43z"/>
   <path class="fil3" d="M31.18 572.91c15.06,-1.54 236.43,-0.24 251.36,-0.24 -0.27,3.69 0.35,6.52 -0.98,9.95 0.87,-0.59 1.72,0.6 1.88,-4.48 0.06,-1.83 -0.13,-4.18 -0.13,-6.11l-16.04 0c0,-8.2 -9.31,-63.43 -10.58,-77.24 -0.13,-1.41 0.82,-7.48 -7.31,-7.94 -2.36,-0.14 -3.02,0.1 -6.25,-0.15 -2.87,-0.23 -5.8,-0.14 -8.7,-0.14 -5.12,3.09 -0.94,0.85 -1.15,1.76 -1.11,4.72 2.18,-2.49 -0.22,1.23 -0.1,0.16 -1.22,1.22 -1.82,1.97 -4.48,5.64 -3.93,3.4 -9.22,8.05 -6.53,5.75 -0.52,1.6 -6.61,4.93 -10.14,5.56 -2.49,4.95 -21.52,11.33 -2.43,0.81 -3.41,1.23 -5.69,1.92 -8.89,2.68 -2.11,2.04 -11.53,3.04 -16.16,1.72 -24.64,3.94 -41.63,-0.65l-17.57 -4.81c-8.01,-1.4 -1.45,-1.37 -9.96,-4.46 -4.09,-1.48 -20.23,-12.09 -22.98,-17.28 -4.83,-9.11 -3.48,-5.35 -2.27,-6.75 1.17,-1.35 0.91,0.05 1.81,-2.11 -3.86,-2.82 -10.34,-14.94 -12.04,-20.48 -2.93,-9.56 -4.25,-15.94 -3.37,-27.13 0.46,-5.87 4.28,-17.23 7.1,-23.15 3.21,-6.74 7.41,-10.49 10.34,-14.65 0.9,-1.28 2.06,-4.47 2.54,-5.05l0.2 -3.78 -8.49 9.22c-1.77,2.33 -5.29,7.83 -6.5,10.36 -0.84,1.75 -1.53,3.82 -2.45,5.49 -3.02,5.51 -3.03,5.99 -4.69,12.66 -2,8.05 -2.41,21.74 -0.54,30.15l7.31 17.99c0.85,2 3.27,6.44 5.08,7.79l3.41 1.65c-3.32,0.23 -2.97,0.69 -7.1,0.78 -7.47,0.17 -16.87,-1.78 -17.83,6.8l-6.99 52.31c-1.13,8.64 -1.64,18.73 -3.72,26.34 -2.69,0 -5.36,-0.01 -8.05,-0.03 -0.76,-0.01 -2.93,-0.05 -3.56,0 -1.94,0.17 0.16,-0.14 -1.57,0.21 -2.26,0.46 -0.57,-0.16 -1.96,0.71z"/>
   <path class="fil3" d="M219.46 121.14l0.96 11.98c0,-13.2 -2.08,-12.08 8.31,-11.9 3.27,0.06 4.59,0.66 8.27,0.78 2.23,0.07 5.53,0.56 8.11,0.98 14.46,2.39 33.33,3.56 49.38,5.71l32.61 3.69c3.93,0.63 13.91,2.5 16.99,0.96 0.11,-0.21 0.31,-0.67 0.35,-0.86 0.03,-0.16 0.09,-0.42 0.12,-0.59 0.18,-1.05 0.1,-1.46 0.12,-2.51 -0.81,-0.39 -1.24,1.31 -0.27,-5.42l2.62 -19.1c0.63,-4.48 1.28,-8.66 1.92,-13.08 1.02,-7.08 0.34,-10.25 3.18,-11.85 1.9,6.21 -1.76,21.42 -1.89,24.67 -0.1,2.37 -0.18,4.73 -0.47,6.38l-2.77 18.72c4.73,-0.33 3.28,-5.18 4.36,-10.97 2.19,-11.76 0.84,-16.8 3.63,-26.2 1.49,-5.03 0.3,-9.46 1.51,-13.64l-3.74 -0.94c-0.09,-0.03 -0.27,-0.06 -0.34,-0.1 -4.09,-1.85 4.43,-4.07 -7.1,-7.35l-23.28 -8.05c-3.36,-1 -4.63,-1.77 -7.98,-2.66 -4.97,-1.32 -10.54,-3.65 -15.79,-5.54 -10.67,-3.84 -20.7,-6.73 -31.36,-10.59l-23.77 -8.2c-2.76,-1 -4.99,-2.4 -7.98,-2.71l4.29 10.56c0.78,2.33 2.21,10.33 2.48,12.94 1.22,11.35 0.71,19.05 -0.81,29.5 -1.49,10.28 -7.9,24.55 -13.3,30.57 -2.95,3.28 -4.26,2.59 -8.38,4.81z"/>
   <path class="fil3" d="M347 129.7l-2.33 -0.31c-0.01,1.05 0.06,1.46 -0.12,2.51 -0.03,0.17 -0.09,0.43 -0.12,0.59 -0.04,0.19 -0.24,0.65 -0.35,0.86 2.38,-0.11 2.45,-0.58 2.96,-3.03 8.67,0 65.47,8.67 78.59,10.73l31.8 4.73c5.23,0.93 10.74,1.94 16.23,1.94 0.49,1.1 0.33,0.87 0.59,2.51 1.94,-5.85 3.01,-25.94 5.01,-34.28 -2.18,1.02 -12.12,-2.85 -15.07,-3.77 -2.29,-0.72 -5.69,-1.4 -7.77,-2.17l-85.01 -25.97c-1.27,-0.4 -14,-3.85 -14.91,-5.15 -1.21,4.18 -0.03,8.61 -1.51,13.64 -2.79,9.4 -1.44,14.44 -3.63,26.2 -1.08,5.8 0.37,10.64 -4.36,10.97z"/>
   <path class="fil4" d="M-0 633.7l313.59 0.18 0.85 -20.18c-0.39,-2.12 0.2,-1.24 -0.85,-1.87 -12.34,-0.57 -26.63,-0.04 -39.2,-0.04 -13.23,0 -26.21,-0.72 -39.2,-0.71 -18.83,0.02 -226.25,-0.26 -235.2,1.02l0 21.6z"/>
   <path class="fil4" d="M543.35 161.6l-14.11 28.73c-2.86,5.41 -6.13,11.19 -8.37,18.05 3.19,5.23 6.43,5.79 12.65,9.47 4.14,2.45 7.54,6.06 12.29,-7.71 0.03,0.17 0.1,0.27 0.06,0.52 -0.05,0.25 0.05,0.41 0.06,0.52 1.6,11.97 7.71,11.93 19.49,19.46 12.87,8.23 11.32,7.04 28.91,3.81 3.39,-0.62 6.23,-0.81 9.39,-1.47 6.97,-1.45 4.32,-0.34 10.58,1.84 -0.08,-0.21 -0.14,-0.73 -0.28,-0.6l-1.9 -2.24c-1.11,-0.75 -2.28,-0.99 -3.54,-1.4l3.22 -6.12 3.62 1.18c-0,-2.53 1.27,-0.48 -3.69,-3.15 -4.4,-2.37 -7.71,-5.33 -12.91,-7.02 -1.64,4.11 -1.94,2.6 -10.53,-0.22 -3.39,-1.11 -19.21,-7.16 -21.52,-9.11 -1.61,-1.36 -2.37,-2.42 -3.52,-3.81 -2.45,-2.98 -1.95,-3.01 -1.94,-5.44l-5.03 3.91c-2.25,1.13 -3.59,0.93 -6.09,0.71l2.14 -4.95c1.73,-3.77 3.54,-8.67 5.53,-12 1.97,-3.29 3.54,-8.53 5.36,-10.78 1.96,0.79 1.61,1.24 1.98,3.28 3,4.36 1.15,10.75 -2.63,17.85 3.41,-1.39 3.85,-5.63 4.4,-9.7 2.72,0.58 4.79,-0.03 7.8,0.89 4.71,1.44 9.17,5.57 12.74,8.89l11.08 9.96c7.63,6.45 -1.79,4.55 5.05,8.39l11.16 6.54c0.51,-3.19 1.86,-4.44 3.09,-7.75l1.18 0.38c-0.03,-0.22 -0.03,-0.75 -0.13,-0.64 -0,0 -3.11,-10.09 -6.77,-17.18 -2.67,-5.17 -4.65,-13.38 -8.5,-16.75l-26.61 -15.56c-3.14,-0.45 -6.31,1.34 -9.05,2.48 2.59,-7.51 7.6,-10.21 0.07,-14.65 -4.82,-2.85 -8.98,-5.75 -14.61,-7.58 -3.14,3.07 -2.95,3.45 -5.34,8.49 -1.61,3.4 -3.41,7.2 -4.79,10.48z"/>
   <path class="fil4" d="M147.37 402.72c-28.2,6.28 -43.46,24.3 -38.75,49.08 4.1,21.59 30.75,37.25 58.54,32.82 23.59,-3.76 43.15,-23.94 38.01,-49.6 -4.1,-20.45 -30.75,-38.32 -57.79,-32.3z"/>
   <path class="fil4" d="M147.6 26.84c-14.87,2.67 -23.28,7.98 -30.21,16.26 -7.54,9.01 -11.63,18.89 -8.72,32.85 4.16,19.98 28.63,37.87 58.5,32.69 22.63,-3.92 44.44,-23.74 37.96,-49.9 -4.7,-18.95 -28.19,-37.17 -57.53,-31.9z"/>
   <path class="fil3" d="M-0 612.1c8.94,-1.28 216.36,-1 235.2,-1.02 12.99,-0.01 25.97,0.71 39.2,0.71 12.57,0 26.86,-0.54 39.2,0.04 -2.84,-2.46 -11.28,-1.22 -15.15,-1.22l-50.78 0 0 -28.43 -180.85 0.12c-1.86,8.17 -0.8,20.14 0,28.3l-63.29 -0.05c-3.32,0.49 -1.81,-0.28 -3.53,1.55z"/>
   <path class="fil4" d="M66.82 582.3l180.85 -0.12c6.61,1.28 25.85,0.45 33.89,0.45 1.33,-3.43 0.72,-6.26 0.98,-9.95 -14.93,0 -236.3,-1.3 -251.36,0.24 -0.74,0.89 -0.29,-0.24 -0.72,1.57 -2.52,10.58 4.29,8.16 11.41,8.14 7.35,-0.02 18.1,0.64 24.95,-0.32z"/>
   <path class="fil3" d="M478.14 161.13c1.59,-1.12 0.45,-0.82 2.34,-0.67 1.44,0.11 0.64,0.05 1.67,0.62 0.48,0.27 1.77,1.51 2.06,1.95 2.86,-0.12 0.39,-0.36 2.79,1.26l20.6 12.41c1.2,0.44 2.24,0.24 4.04,0.83l-1.89 -2.08c1.94,-4.52 4.25,-9.03 6.32,-13.22l4.55 -9.51c2.08,-3.36 0.08,-1.71 2.06,-1.46l-1.63 -3.12 -19.38 -11.65c-2.79,-1.67 -2.07,-0.23 -2.46,-3 -0.93,0.77 -1.34,0.81 -1.54,0.93l-4.76 -3.11c-2.78,-1.26 -3.91,-3.2 -7.81,-3.28 -4.12,2.68 -6.89,11.75 -9.63,16.91 -4.88,9.19 -4.47,10.49 2.98,14.17l-0.31 2.01z"/>
   <path class="fil4" d="M467.99 115.58c-4.48,7.31 -11.72,26.09 -15.37,31.05 -1.01,1.09 -3.12,5.02 -3.16,6.95 -0.06,3.9 13.92,10.69 16.33,12.09 6.41,3.72 19.23,11.93 24.7,13.71 3,-2.33 1.98,-0.84 4.03,-6.64 -1.54,-2.52 -1.72,-3.05 -4.66,-4.73 -4.09,-2.34 -5.02,-1.69 -5.64,-4.99 -0.29,-0.44 -1.58,-1.69 -2.06,-1.95 -1.03,-0.57 -0.23,-0.51 -1.67,-0.62 -1.9,-0.14 -0.76,-0.44 -2.34,0.67 -4.2,-1.24 -15.11,-7.41 -16.53,-11.04 -0.11,-1.32 11.92,-28.74 14.94,-29.68 3.22,-0.5 13.18,6.78 16.63,8.65 0.14,1.15 0.79,-0.63 -0.27,2.25l4.76 3.11c0.2,-0.12 0.61,-0.16 1.54,-0.93 1.92,-0.28 6.9,4.3 9.01,4.71l1.47 -0.03c3.57,-0.25 4.76,-4.32 4.25,-6.52 -0.81,-3.51 -17.07,-11.56 -20.16,-13.45 -2.43,-1.49 -18.42,-12.59 -21.18,-11.22 -1.78,0.87 -4.11,6.05 -4.61,8.61z"/>
   <path class="fil3" d="M529.2 154.6c0.12,2.26 -0.24,2.42 -2.19,6.42l-9.04 18.56c-1.21,0.45 1.09,1.63 -2.01,-0.09 0.07,0.16 0.26,0.2 0.24,0.45 -0.19,2.26 8.16,6.8 9.67,7.65 0.86,0.49 0.98,0.44 1.79,1.04 1.09,0.81 1.05,0.89 1.58,1.68l14.11 -28.73c-2.02,-1.82 -11.43,-7.85 -14.15,-6.99z"/>
   <path class="fil5" d="M478.14 161.13l0.31 -2.01c-7.46,-3.68 -7.87,-4.98 -2.98,-14.17 2.74,-5.16 5.51,-14.23 9.63,-16.91 3.9,0.08 5.03,2.02 7.81,3.28 1.06,-2.89 0.42,-1.11 0.27,-2.25 -3.45,-1.86 -13.41,-9.15 -16.63,-8.65 -3.02,0.94 -15.05,28.36 -14.94,29.68 1.42,3.63 12.34,9.8 16.53,11.04z"/>
   <path class="fil6" d="M511.63 177.52c1.67,1.15 1.73,1.52 4.33,1.97 3.1,1.72 0.8,0.55 2.01,0.09l9.04 -18.56c1.95,-4 2.32,-4.16 2.19,-6.42 -1.98,-1.28 -3.91,-3.12 -6.53,-3.35 -1.98,-0.25 0.01,-1.91 -2.06,1.46l-4.55 9.51c-2.06,4.19 -4.38,8.7 -6.32,13.22l1.89 2.08z"/>
   <path class="fil7" d="M614.82 219.87c6.09,3.29 16.01,10.78 22,12.73 1.49,-2.77 1.66,-3.19 2.9,-7.01 -1.69,-2.77 -0.53,-2.31 -3.75,-4.21 -3.45,-2.04 -14.76,-9.15 -16.88,-8.87l-1.18 -0.38c-1.23,3.31 -2.57,4.55 -3.09,7.75z"/>
   <path class="fil7" d="M614.31 234.81c13.68,7.4 15.86,13.62 20.54,1.92 -1.83,-2.15 -16.75,-11.44 -19.41,-11.1l-3.62 -1.18 -3.22 6.12c1.26,0.41 2.43,0.65 3.54,1.4l1.9 2.24c0.15,-0.14 0.2,0.39 0.28,0.6z"/>
   <path class="fil8" d="M344.68 129.39l2.33 0.31 2.77 -18.72c0.29,-1.64 0.37,-4 0.47,-6.38 0.13,-3.24 3.79,-18.45 1.89,-24.67 -2.84,1.6 -2.16,4.78 -3.18,11.85 -0.64,4.42 -1.29,8.6 -1.92,13.08l-2.62 19.1c-0.96,6.72 -0.54,5.03 0.27,5.42z"/>
   <path class="fil6" d="M552.36 196.56l-2.14 4.95c2.5,0.22 3.84,0.42 6.09,-0.71l5.03 -3.91c0.65,0.37 -0.06,2.1 0.8,-0.54 1.26,-0.69 0.29,0.38 0.47,-1.44 3.78,-7.1 5.64,-13.49 2.63,-17.85 -1.55,-2.24 -0.22,-1.52 -1.94,-2.52 -2.01,4.93 -1.49,3.53 -0.66,7.4 1.05,4.85 -1.45,14.11 -10.28,14.61z"/>
   <path class="fil7" d="M552.36 196.56c8.83,-0.51 11.33,-9.76 10.28,-14.61 -0.84,-3.88 -1.35,-2.48 0.66,-7.4 1.72,1 0.39,0.28 1.94,2.52 -0.37,-2.04 -0.02,-2.49 -1.98,-3.28 -1.82,2.25 -3.39,7.49 -5.36,10.78 -2,3.33 -3.8,8.24 -5.53,12z"/>
   <path class="fil9" d="M361.84 72.08c0.61,0.78 2.14,-1.09 0.69,-0.41 -0.02,0.01 -1.68,-0.86 -0.69,0.41z"/>
  </g>
 </g>
</svg>
