<?xml version="1.0" encoding="UTF-8" standalone="no"?>
<svg
   version="1.2"
   viewBox="0 0 348.34 34.607304"
   width="348.34"
   height="34.607304"
   id="svg13"
   sodipodi:docname="LCA INDUSTRIAL SOLUTIONS LOGO.svg"
   inkscape:version="1.4.2 (f4327f4, 2025-05-13)"
   xmlns:inkscape="http://www.inkscape.org/namespaces/inkscape"
   xmlns:sodipodi="http://sodipodi.sourceforge.net/DTD/sodipodi-0.dtd"
   xmlns:xlink="http://www.w3.org/1999/xlink"
   xmlns="http://www.w3.org/2000/svg"
   xmlns:svg="http://www.w3.org/2000/svg"
   xmlns:rdf="http://www.w3.org/1999/02/22-rdf-syntax-ns#"
   xmlns:cc="http://creativecommons.org/ns#"
   xmlns:dc="http://purl.org/dc/elements/1.1/">
  <sodipodi:namedview
     id="namedview13"
     pagecolor="#505050"
     bordercolor="#eeeeee"
     borderopacity="1"
     inkscape:showpageshadow="0"
     inkscape:pageopacity="0"
     inkscape:pagecheckerboard="0"
     inkscape:deskcolor="#505050"
     inkscape:zoom="1.4142136"
     inkscape:cx="126.92567"
     inkscape:cy="3.5355339"
     inkscape:window-width="1280"
     inkscape:window-height="650"
     inkscape:window-x="-6"
     inkscape:window-y="-6"
     inkscape:window-maximized="1"
     inkscape:current-layer="svg13" />
  <title
     id="title1">2</title>
  <defs
     id="defs2">
    <linearGradient
       id="linearGradient68"
       inkscape:collect="always">
      <stop
         style="stop-color:#0c0c0c;stop-opacity:1;"
         offset="0"
         id="stop68" />
      <stop
         style="stop-color:#0c0c0c;stop-opacity:0;"
         offset="1"
         id="stop69" />
    </linearGradient>
    <linearGradient
       id="linearGradient57"
       inkscape:collect="always">
      <stop
         style="stop-color:#c8681e;stop-opacity:1;"
         offset="0.30000001"
         id="stop57" />
      <stop
         style="stop-color:#000000;stop-opacity:0;"
         offset="1"
         id="stop58" />
    </linearGradient>
    <linearGradient
       id="g1"
       x2="1"
       gradientUnits="userSpaceOnUse"
       gradientTransform="matrix(158.17,0,0,1.239,47.787,48.745)">
      <stop
         offset="0"
         stop-color="#e87a24"
         stop-opacity="1"
         id="stop1" />
      <stop
         offset="1"
         stop-color="#e87a24"
         stop-opacity=".3"
         id="stop2" />
    </linearGradient>
    <linearGradient
       inkscape:collect="always"
       xlink:href="#linearGradient57"
       id="linearGradient58"
       x1="47.799999"
       y1="49.349998"
       x2="206"
       y2="49.349998"
       gradientUnits="userSpaceOnUse" />
    <linearGradient
       inkscape:collect="always"
       xlink:href="#linearGradient68"
       id="linearGradient69"
       x1="47.799999"
       y1="49.349998"
       x2="206"
       y2="49.349998"
       gradientUnits="userSpaceOnUse" />
    <linearGradient
       inkscape:collect="always"
       xlink:href="#linearGradient57"
       id="linearGradient70"
       gradientUnits="userSpaceOnUse"
       x1="47.799999"
       y1="49.349998"
       x2="206"
       y2="49.349998" />
  </defs>
  <style
     id="style2">
		.s0 { fill: #ec691f } 
		.s1 { fill: #000000 } 
		.s2 { fill: #e87a24 } 
		.s3 { fill: url(#g1) } 
	</style>
  <path
     id="lca industrial solutions "
     class="s0"
     aria-label="lca industrial solutions"
     d="M 39.753553,23.054271 V 2.45427 h 5.3 v 16.600001 h 9.3 v 4 z m 34.3,-5.4 v 4.3 q -1.5,0.7 -3,1.1 -1.6,0.4 -3.4,0.4 -5.1,0 -8.1,-2.9 -3,-2.8 -3,-7.8 0,-4.900001 3,-7.700001 3,-2.9 8.1,-2.9 1.8,0 3.4,0.4 1.5,0.3 3,1.1 v 4.3 q -1.5,-1 -2.9,-1.5 -1.4,-0.5 -3,-0.5 -2.9,0 -4.5,1.8 -1.6,1.8 -1.6,5.000001 0,3.2 1.6,5 1.6,1.9 4.5,1.9 1.6,0 3,-0.5 1.4,-0.5 2.9,-1.5 z m 18.5,5.4 -1.3,-3.7 h -8.3 l -1.3,3.7 h -5.4 l 7.7,-20.600001 h 6.3 l 7.6,20.600001 z m -5.4,-15.700001 -2.9,8.100001 h 5.7 z"
     style="stroke:#0c0c0c;stroke-width:0.5;stroke-dasharray:none;stroke-opacity:1" />
  <path
     id="path2"
     class="s1"
     aria-label="lca industrial solutions"
     d="M 105.95355,23.054271 V 9.55427 h 1.8 v 13.500001 z m 5,0 V 9.55427 h 2.5 l 6,11.300001 V 9.55427 h 1.8 v 13.500001 h -2.5 l -6,-11.3 v 11.3 z m 18.1,-12 h -2.3 v 10.5 h 2.3 q 2.7,0 4,-1.3 1.3,-1.2 1.3,-4 0,-2.7 -1.3,-3.9 -1.3,-1.3 -4,-1.3 z m -4.1,12 V 9.55427 h 3.8 q 3.9,0 5.7,1.600001 1.9,1.7 1.9,5.1 0,3.5 -1.9,5.2 -1.8,1.6 -5.7,1.6 z m 13.8,-5.1 V 9.55427 h 1.8 v 8.200001 q 0,2.2 0.8,3.1 0.8,1 2.5,1 1.8,0 2.6,-1 0.8,-0.9 0.8,-3.1 V 9.55427 h 1.8 v 8.400001 q 0,2.7 -1.3,4 -1.3,1.4 -3.9,1.4 -2.5,0 -3.8,-1.4 -1.3,-1.3 -1.3,-4 z m 22.3,-8.000001 v 1.800001 q -1.1,-0.5 -2,-0.7 -0.9,-0.3 -1.8,-0.3 -1.5,0 -2.3,0.6 -0.8,0.6 -0.8,1.7 0,0.9 0.5,1.3 0.6,0.5 2.1,0.7 l 1.1,0.3 q 2,0.4 3,1.4 1,0.9 1,2.6 0,1.9 -1.3,2.9 -1.4,1.1 -3.9,1.1 -1,0 -2,-0.3 -1.1,-0.2 -2.3,-0.6 v -1.9 q 1.1,0.6 2.2,1 1.1,0.3 2.1,0.3 1.6,0 2.4,-0.6 0.9,-0.7 0.9,-1.8 0,-1 -0.6,-1.5 -0.6,-0.6 -2,-0.9 l -1.2,-0.2 q -2,-0.4 -2.9,-1.3 -0.9,-0.8 -0.9,-2.4 0,-1.8 1.2,-2.8 1.3,-1.000001 3.5,-1.000001 1,0 1.9,0.1 1,0.2 2.1,0.5 z m 2,1.100001 V 9.55427 h 11.4 v 1.500001 h -4.8 v 12 h -1.8 v -12 z m 19.3,5.7 q 0.6,0.2 1.1,0.8 0.6,0.7 1.1,1.8 l 1.9,3.7 h -2 l -1.7,-3.5 q -0.7,-1.3 -1.3,-1.8 -0.6,-0.4 -1.7,-0.4 h -2 v 5.7 h -1.8 V 9.55427 h 4.1 q 2.3,0 3.4,1.000001 1.2,0.9 1.2,2.9 0,1.3 -0.6,2.1 -0.6,0.8 -1.7,1.2 z m -2.3,-5.7 h -2.3 v 4.8 h 2.3 q 1.3,0 2,-0.6 0.7,-0.6 0.7,-1.8 0,-1.2 -0.7,-1.8 -0.7,-0.6 -2,-0.6 z m 8.9,12 V 9.55427 h 1.8 v 13.500001 z m 12,-5 -2.5,-6.7 -2.5,6.7 z m -8.6,5 5.1,-13.500001 h 2.1 l 5.1,13.500001 h -1.9 l -1.2,-3.5 h -6.1 l -1.2,3.5 z m 14.7,0 V 9.55427 h 1.8 v 12.000001 h 6.6 v 1.5 z m 24,-13.100001 v 1.800001 q -1,-0.5 -1.9,-0.7 -0.9,-0.3 -1.8,-0.3 -1.5,0 -2.3,0.6 -0.8,0.6 -0.8,1.7 0,0.9 0.5,1.3 0.6,0.5 2.1,0.7 l 1.1,0.3 q 2,0.4 3,1.4 1,0.9 1,2.6 0,1.9 -1.4,2.9 -1.3,1.1 -3.8,1.1 -1,0 -2.1,-0.3 -1,-0.2 -2.2,-0.6 v -1.9 q 1.1,0.6 2.2,1 1.1,0.3 2.1,0.3 1.6,0 2.4,-0.6 0.9,-0.7 0.9,-1.8 0,-1 -0.7,-1.5 -0.6,-0.6 -2,-0.9 l -1.1,-0.2 q -2,-0.4 -2.9,-1.3 -0.9,-0.8 -0.9,-2.4 0,-1.8 1.2,-2.8 1.3,-1.000001 3.5,-1.000001 0.9,0 1.9,0.1 1,0.2 2,0.5 z m 9.4,0.800001 q -2,0 -3.1,1.5 -1.2,1.5 -1.2,4.1 0,2.5 1.2,4 1.1,1.5 3.1,1.5 2,0 3.2,-1.5 1.2,-1.5 1.2,-4 0,-2.6 -1.2,-4.1 -1.2,-1.5 -3.2,-1.5 z m 0,-1.400001 q 2.9,0 4.6,1.900001 1.7,1.9 1.7,5.1 0,3.2 -1.7,5.1 -1.7,1.9 -4.6,1.9 -2.8,0 -4.5,-1.9 -1.7,-1.9 -1.7,-5.1 0,-3.2 1.7,-5.1 1.7,-1.900001 4.5,-1.900001 z m 8.6,13.700001 V 9.55427 h 1.8 v 12.000001 h 6.6 v 1.5 z m 9.7,-5.1 V 9.55427 h 1.9 v 8.200001 q 0,2.2 0.8,3.1 0.8,1 2.5,1 1.8,0 2.6,-1 0.8,-0.9 0.8,-3.1 V 9.55427 h 1.8 v 8.400001 q 0,2.7 -1.3,4 -1.3,1.4 -3.9,1.4 -2.5,0 -3.8,-1.4 -1.4,-1.3 -1.4,-4 z m 11.4,-6.9 V 9.55427 h 11.4 v 1.500001 h -4.8 v 12 h -1.8 v -12 z m 13.9,12 V 9.55427 h 1.8 v 13.500001 z m 10.5,-12.3 q -2,0 -3.2,1.5 -1.2,1.5 -1.2,4.1 0,2.5 1.2,4 1.2,1.5 3.2,1.5 1.9,0 3.1,-1.5 1.2,-1.5 1.2,-4 0,-2.6 -1.2,-4.1 -1.2,-1.5 -3.1,-1.5 z m 0,-1.400001 q 2.8,0 4.5,1.900001 1.7,1.9 1.7,5.1 0,3.2 -1.7,5.1 -1.7,1.9 -4.5,1.9 -2.9,0 -4.6,-1.9 -1.7,-1.9 -1.7,-5.1 0,-3.2 1.7,-5.1 1.7,-1.900001 4.6,-1.900001 z m 9.5,13.700001 V 9.55427 h 2.4 l 6,11.300001 V 9.55427 h 1.8 v 13.500001 h -2.5 l -5.9,-11.3 v 11.3 z m 22,-13.100001 v 1.800001 q -1,-0.5 -1.9,-0.7 -0.9,-0.3 -1.8,-0.3 -1.5,0 -2.3,0.6 -0.8,0.6 -0.8,1.7 0,0.9 0.5,1.3 0.6,0.5 2.1,0.7 l 1.1,0.3 q 2,0.4 3,1.4 1,0.9 1,2.6 0,1.9 -1.4,2.9 -1.3,1.1 -3.8,1.1 -1,0 -2.1,-0.3 -1,-0.2 -2.2,-0.6 v -1.9 q 1.1,0.6 2.2,1 1.1,0.3 2.1,0.3 1.6,0 2.4,-0.6 0.9,-0.7 0.9,-1.8 0,-1 -0.7,-1.5 -0.6,-0.6 -2,-0.9 l -1.1,-0.2 q -2,-0.4 -2.9,-1.3 -0.9,-0.8 -0.9,-2.4 0,-1.8 1.2,-2.8 1.3,-1.000001 3.5,-1.000001 0.9,0 1.9,0.1 1,0.2 2,0.5 z"
     style="stroke:#0c0c0c;stroke-width:0.5;stroke-dasharray:none;stroke-opacity:1" />
  <g
     id="g11"
     style="opacity:1;fill:#ec691f;fill-opacity:1;stroke:#0c0c0c;stroke-width:0.5;stroke-dasharray:none;stroke-opacity:1"
     transform="translate(-7.8464466,-18.945729)">
    <g
       id="&lt;Group&gt;"
       style="fill:#ec691f;fill-opacity:1;stroke:#0c0c0c;stroke-width:0.5;stroke-dasharray:none;stroke-opacity:1">
      <path
         id="&lt;Path&gt;"
         class="s0"
         d="M 42.1,36.3 25.1,53.2 8.2,36.3 11.3,33.2 25.1,47.1 39,33.2 Z"
         style="fill:#ec691f;fill-opacity:1;stroke:#0c0c0c;stroke-width:0.5;stroke-dasharray:none;stroke-opacity:1" />
    </g>
    <g
       id="g5"
       style="fill:#ec691f;fill-opacity:1;stroke:#0c0c0c;stroke-width:0.5;stroke-dasharray:none;stroke-opacity:1">
      <path
         id="path4"
         class="s0"
         d="m 32.7,36.4 -3.1,-3 -3,3 -1.5,1.5 -6.2,-6.3 6.2,-6.3 3,-3 -3,-3 -12.3,12.4 12.3,12.3 7.6,-7.6 -3.1,3.1"
         style="fill:#ec691f;fill-opacity:1;stroke:#0c0c0c;stroke-width:0.5;stroke-dasharray:none;stroke-opacity:1" />
      <path
         id="path5"
         class="s2"
         d="M 25.1,19.3 12.8,31.7 Z"
         style="fill:#ec691f;fill-opacity:1;stroke:#0c0c0c;stroke-width:0.5;stroke-dasharray:none;stroke-opacity:1" />
    </g>
    <g
       id="g10"
       style="fill:#ec691f;fill-opacity:1;stroke:#0c0c0c;stroke-width:0.5;stroke-dasharray:none;stroke-opacity:1">
      <g
         id="g9"
         style="fill:#ec691f;fill-opacity:1;stroke:#0c0c0c;stroke-width:0.5;stroke-dasharray:none;stroke-opacity:1">
        <path
           id="path6"
           class="s2"
           d="M 37.5,31.7 29.6,23.8 Z"
           style="fill:#ec691f;fill-opacity:1;stroke:#0c0c0c;stroke-width:0.5;stroke-dasharray:none;stroke-opacity:1" />
        <path
           id="path7"
           class="s2"
           d="M 37.5,31.7 29.6,23.8 Z"
           style="fill:#ec691f;fill-opacity:1;stroke:#0c0c0c;stroke-width:0.5;stroke-dasharray:none;stroke-opacity:1" />
        <path
           id="path8"
           class="s0"
           d="m 37.5,31.7 -3,2.9 -4.9,-4.8 -4.8,4.8 -3,-2.9 4.8,-4.9 3,-3 z"
           style="fill:#ec691f;fill-opacity:1;stroke:#0c0c0c;stroke-width:0.5;stroke-dasharray:none;stroke-opacity:1" />
        <path
           id="path9"
           class="s2"
           d="M 37.5,31.7 29.6,23.8 Z"
           style="fill:#ec691f;fill-opacity:1;stroke:#0c0c0c;stroke-width:0.5;stroke-dasharray:none;stroke-opacity:1" />
      </g>
    </g>
  </g>
  <g
     id="g12"
     transform="matrix(1.0144793,0,0,3.9902492,-8.7389878,-166.34611)"
     style="fill:url(#linearGradient58);stroke:none;stroke-width:0.099405;stroke-dasharray:none;stroke-opacity:1">
    <path
       id="path11"
       class="s3"
       d="M 206,50 H 47.8 V 48.7 H 206 Z"
       style="fill:url(#linearGradient70);stroke:url(#linearGradient69);stroke-width:0.099405;stroke-dasharray:none;stroke-opacity:1" />
  </g>
  <metadata
     id="metadata13">
    <rdf:RDF>
      <cc:Work
         rdf:about="">
        <dc:title>2</dc:title>
      </cc:Work>
    </rdf:RDF>
  </metadata>
  <text
     xml:space="preserve"
     style="font-size:6.31703px;text-align:start;writing-mode:lr-tb;direction:ltr;text-anchor:start;opacity:1;fill:#000000;fill-opacity:1;stroke:#0c0c0c;stroke-width:0.5;stroke-dasharray:none;stroke-opacity:1"
     x="203.37547"
     y="33.857883"
     id="text55"
     transform="scale(1.0199095,0.98047915)"><tspan
       sodipodi:role="line"
       id="tspan55"
       x="203.37547"
       y="33.857883"
       style="font-style:italic;font-variant:normal;font-weight:normal;font-stretch:normal;font-size:6.31703px;font-family:Arial;-inkscape-font-specification:'Arial, Italic';font-variant-ligatures:normal;font-variant-caps:normal;font-variant-numeric:normal;font-variant-east-asian:normal;fill:#000000;fill-opacity:1;stroke:#0c0c0c;stroke-width:0.5;stroke-dasharray:none;stroke-opacity:1">CREATING</tspan></text>
  <text
     xml:space="preserve"
     style="font-style:italic;font-variant:normal;font-weight:normal;font-stretch:normal;font-size:6.31703px;font-family:Arial;-inkscape-font-specification:'Arial, Italic';font-variant-ligatures:normal;font-variant-caps:normal;font-variant-numeric:normal;font-variant-east-asian:normal;text-align:start;writing-mode:lr-tb;direction:ltr;text-anchor:start;fill:#000000;fill-opacity:1;stroke:#0c0c0c;stroke-width:0.5;stroke-dasharray:none;stroke-opacity:1"
     x="298.90796"
     y="34.252419"
     id="text55-9"
     transform="scale(1.0199095,0.98047915)"><tspan
       sodipodi:role="line"
       id="tspan56"
       x="298.90796"
       y="34.252419">ADVANTAGES</tspan></text>
  <path
     style="opacity:1;fill:#ec691f;fill-opacity:1;stroke:none;stroke-width:0.4;stroke-dasharray:none;stroke-opacity:1"
     d="m 39.530314,27.945116 0.06074,5.162852"
     id="path66" />
  <text
     xml:space="preserve"
     style="font-style:italic;font-variant:normal;font-weight:bold;font-stretch:normal;font-size:8px;font-family:Arial;-inkscape-font-specification:'Arial, Bold Italic';font-variant-ligatures:normal;font-variant-caps:normal;font-variant-numeric:normal;font-variant-east-asian:normal;text-align:start;writing-mode:lr-tb;direction:ltr;text-anchor:start;fill:#ec691f;fill-opacity:1;stroke:#0c0c0c;stroke-width:0.2;stroke-dasharray:none;stroke-opacity:1"
     x="239.39859"
     y="34.686302"
     id="text55-8"
     transform="scale(1.0199095,0.98047915)"><tspan
       sodipodi:role="line"
       id="tspan70"
       x="239.39859"
       y="34.686302">COMPETITIVE</tspan><tspan
       sodipodi:role="line"
       id="tspan71"
       x="239.39859"
       y="44.686302"></tspan></text>
</svg>
